<?xml version="1.0" encoding="utf-8"?>
<!-- Generator: Adobe Illustrator 27.5.0, SVG Export Plug-In . SVG Version: 6.00 Build 0)  -->
<svg version="1.1" id="Layer_1" xmlns="http://www.w3.org/2000/svg" xmlns:xlink="http://www.w3.org/1999/xlink" x="0px" y="0px"
	 viewBox="0 0 4000 4000" style="enable-background:new 0 0 4000 4000;" xml:space="preserve">
<g>
	<g>
		<rect style="fill:#F9DA55;" width="4000" height="4000"/>
	</g>
	<g>
		<g style="opacity:0.3;">
			<ellipse style="fill:#000072;" cx="1880.671" cy="3326.975" rx="889.946" ry="120.37"/>
		</g>
		<g>
			<g>
				<path style="fill:#FFFFFF;" d="M2570.35,2313.3c-97.95,13.6-224.35,12.35-331.8-49.5c-75.05-43.2-140.85-115.95-181.4-233.8
					c-46.3-134.55-51.5-234.55-36.05-308.6c29.3-140.55,182.9-216.95,314.15-158.75c99.7,44.2,234.55,125.5,321.4,264.4
					c47,74.95,79.95,166.7,85.9,278.45C2748,2208.6,2672.65,2299.1,2570.35,2313.3z"/>
			</g>
			<g>
				<path style="fill:#000072;" d="M2473.285,2322.698c-75.239,0-160.308-13.169-235.981-56.729
					c-84.073-48.398-145.483-127.515-182.52-235.156c-41.636-121.001-53.794-225.273-36.133-309.927
					c13.945-66.89,57.129-123.301,118.482-154.771c62.495-32.061,135.068-34.16,199.131-5.752
					c98.823,43.809,234.995,125.41,322.505,265.361c51.768,82.544,80.796,176.631,86.274,279.644
					c5.483,103.652-71.099,196.074-174.351,210.405l0,0C2541.723,2319.798,2508.579,2322.698,2473.285,2322.698z M2242.729,1545.476
					c-35.406,0-70.757,8.389-103.311,25.088c-60.005,30.776-102.236,85.942-115.874,151.343
					c-17.471,83.76-5.371,187.143,35.967,307.275c36.636,106.47,97.29,184.678,180.283,232.451
					c109.956,63.296,240.244,61.675,330.215,49.189l0,0c100.698-13.979,175.391-104.106,170.044-205.19
					c-5.439-102.153-34.209-195.435-85.522-277.256c-86.836-138.877-222.109-219.912-320.293-263.443
					C2304.936,1551.941,2273.813,1545.476,2242.729,1545.476z"/>
			</g>
		</g>
		<g style="opacity:0.3;">
			<path style="fill:#000072;" d="M2570.35,2313.3c-97.95,13.6-224.35,12.35-331.8-49.5L2374.6,1950
				c0,0,239.15,101.35,282.05-122.95c47,74.95,79.95,166.7,85.9,278.45C2748,2208.6,2672.65,2299.1,2570.35,2313.3z"/>
		</g>
		<g>
			<path style="fill:#000072;" d="M2471.987,2340.403c-70.176,0-134.146-11.357-191.035-33.999
				c-115.229-45.859-196.895-136.665-242.72-269.902c-42.651-124.004-55.005-231.387-36.714-319.175
				c15.02-72.095,61.533-132.891,127.617-166.792c67.222-34.492,145.298-36.743,214.209-6.187l0,0
				c148.955,66.05,401.475,226.646,419.165,560.083c5.981,112.661-77.207,213.115-189.39,228.691
				C2538.144,2337.981,2504.404,2340.403,2471.987,2340.403z M2242.734,1562.967c-32.671,0-65.293,7.744-95.342,23.159
				c-55.273,28.359-94.17,79.15-106.714,139.356c-16.802,80.644-4.897,180.908,35.376,298.013
				c91.777,266.826,317.959,294.097,491.567,270.01c91.772-12.744,159.834-94.863,154.946-186.953
				c-16.563-312.119-254.863-463.301-395.434-525.64l0,0C2300.112,1568.933,2271.406,1562.967,2242.734,1562.967z"/>
		</g>
		<g>
			<path style="fill:#16B0F4;" d="M2811.139,2294.135c11.171,35.25,45.407,57.99,82.211,54.409
				c90.587-8.815,258.867,2.675,349.864,184.521c120.646,241.098-202.864,572.614-579.251,416.195
				c-41.653-17.31-89.327,3.084-104.643,45.511l-1.413,3.914c-13.878,38.445,4.078,81.019,41.234,98.052
				c119.785,54.913,390.718,134.523,669.732-88.166c348.159-277.874,186.681-874.844-390.689-816.269
				C2828.591,2197.334,2796.08,2246.616,2811.139,2294.135L2811.139,2294.135z"/>
		</g>
		<g style="opacity:0.7;">
			<g>
				<path style="fill:#FFFFFF;" d="M2633.962,2989.259c201.108,83.576,387.09,27.833,498.322-78.969
					c-113.033,86.43-282.031,124.309-463.322,48.969c-36.337-15.101-77.242-1.496-97.263,30.387
					C2590.753,2981.381,2613.112,2980.594,2633.962,2989.259z"/>
			</g>
			<g>
				<path style="fill:#FFFFFF;" d="M2883.184,2197.303c-25.317,2.568-46.128,16.702-58.486,36.213
					c7.261-3.157,15.103-5.363,23.486-6.213c559.218-56.734,728.279,501.502,422.015,789.141c1.224-0.966,2.449-1.894,3.674-2.872
					C3622.031,2735.697,3460.554,2138.727,2883.184,2197.303z"/>
			</g>
		</g>
		<g style="opacity:0.3;">
			<path style="fill:#000072;" d="M2676.255,3004.2c423.911,176.169,788.27-197.205,652.39-468.745
				c-102.486-204.807-292.013-217.748-394.039-207.82c-41.452,4.034-80.01-21.577-92.592-61.279
				c-6.967-21.983-4.879-44.295,3.854-63.356c-30.112,17.956-46.171,55.028-34.729,91.134v0
				c11.171,35.25,45.407,57.99,82.211,54.409c90.587-8.815,258.867,2.675,349.864,184.521
				c120.646,241.098-202.864,572.613-579.252,416.195c-41.653-17.31-89.327,3.084-104.643,45.511l-1.413,3.914
				c-6.758,18.721-5.917,38.402,0.964,55.655C2576.561,3007.339,2629.72,2984.861,2676.255,3004.2z"/>
		</g>
		<g>
			<path style="fill:#000072;" d="M2868.808,3176.78c-118.057,0-216.133-33.501-278.003-61.865
				c-47.017-21.553-69.248-74.438-51.709-123.022l1.411-3.906c9.199-25.483,27.91-45.527,52.69-56.455
				c24.732-10.903,53.33-11.177,78.442-0.737c216.939,90.156,400.356,7.969,491.499-89.8
				c85.01-91.191,108.838-205.752,62.188-298.979c-85.391-170.649-243.457-181.987-330.039-173.564
				c-45.865,4.434-89.263-24.248-103.218-68.271c0-0.005,0-0.005,0-0.005c-8.989-28.374-4.77-58.916,11.582-83.799
				c16.387-24.932,42.817-40.957,72.515-43.97c139.229-14.141,261.133,7.554,362.271,64.443
				c90.81,51.079,159.37,128.472,198.267,223.813c80.913,198.33,18.476,424.8-155.357,563.54
				c-125.176,99.907-262.07,151.235-406.87,152.549C2872.587,3176.771,2870.688,3176.78,2868.808,3176.78z M2633.208,2963.069
				c-8.125,0-16.221,1.689-23.877,5.063c-14.673,6.47-25.752,18.34-31.196,33.428l-1.411,3.906
				c-10.42,28.857,2.803,60.278,30.752,73.091c128.486,58.896,383.642,126.104,648.921-85.615
				c159.844-127.578,217.422-335.415,143.271-517.173c-77.583-190.166-271.748-288.662-519.468-263.569
				c-17.661,1.792-33.379,11.323-43.12,26.143c-9.707,14.775-12.212,32.905-6.875,49.751v-0.005
				c8.281,26.147,34.072,43.169,61.206,40.547c96.826-9.409,273.599,3.447,369.688,195.479
				c54.321,108.555,27.998,240.425-68.701,344.155c-99.883,107.148-300.22,197.495-536.108,99.458
				C2648.808,2964.622,2640.996,2963.069,2633.208,2963.069z"/>
		</g>
		<g>
			<path style="fill:#16B0F4;" d="M2868.9,2358.05l-216.35,665.9c-42.8,131.75-147.9,233.9-280.85,272.75
				c-3.4,1-6.75,1.95-10.15,2.95c-328.95,94.05-678.5,94.05-1007.45-0.05c-3.35-0.95-6.7-1.9-10.1-2.9
				c-43.45-12.7-83.95-32.15-120.25-57.3c-74.75-51.5-131.8-126.8-160.6-215.45l-155.85-479.7l-60.5-186.2
				c-24.7-76.05,12.15-158.65,85.45-190.6C1071.6,2106.7,1348.4,2030,1857.85,2030s786.25,76.7,925.6,137.45
				C2856.75,2199.4,2893.65,2282,2868.9,2358.05z"/>
		</g>
		<g>
			<g>
				<path style="fill:#FFFFFF;" d="M1794.122,2991.023c42.331-5.856,85.139-5.856,127.47,0
					c58.431,8.084,134.592,1.384,125.27-91.834c-5.303-53.034-28.072-90.82-56.073-117.63c-73.622-70.491-192.243-70.491-265.866,0
					c-28.001,26.81-50.769,64.596-56.073,117.63C1659.53,2992.407,1735.691,2999.107,1794.122,2991.023z"/>
			</g>
			<g>
				<circle style="fill:#FFFFFF;" cx="1857.857" cy="2544.251" r="87.32"/>
			</g>
			<g>
				
					<ellipse transform="matrix(0.7071 -0.7071 0.7071 0.7071 -1406.5457 1953.9874)" style="fill:#FFFFFF;" cx="1655.399" cy="2674.844" rx="87.32" ry="87.32"/>
			</g>
			<g>
				
					<ellipse transform="matrix(0.7071 -0.7071 0.7071 0.7071 -1287.9482 2240.3069)" style="fill:#FFFFFF;" cx="2060.316" cy="2674.844" rx="87.32" ry="87.32"/>
			</g>
		</g>
		<g style="opacity:0.7;">
			<path style="fill:#FFFFFF;" d="M1414.1,3299.6c-3.35-0.95-6.7-1.9-10.1-2.9c-43.45-12.7-83.95-32.15-120.25-57.3
				c-74.75-51.5-131.8-126.8-160.6-215.45l-155.85-479.7l-60.5-186.2c-24.7-76.05,12.15-158.65,85.45-190.6
				c136.587-59.546,405.259-134.404,895.6-137.35c-9.92-0.059-19.898-0.1-30-0.1c-509.45,0-786.25,76.7-925.6,137.45
				c-73.3,31.95-110.15,114.55-85.45,190.6l60.5,186.2l155.85,479.7c28.8,88.65,85.85,163.95,160.6,215.45
				c36.3,25.15,76.8,44.6,120.25,57.3c3.4,1,6.75,1.95,10.1,2.9c174.209,49.835,354.196,73.263,533.841,70.322
				C1728.295,3367.315,1568.916,3343.887,1414.1,3299.6z"/>
		</g>
		<g style="opacity:0.3;">
			<path style="fill:#000072;" d="M2868.9,2358.05l-216.35,665.9c-42.8,131.75-147.9,233.9-280.85,272.75
				c-3.4,1-6.75,1.95-10.15,2.95c-328.95,94.05-678.5,94.05-1007.45-0.05c-3.35-0.95-6.7-1.9-10.1-2.9
				c-43.45-12.7-83.95-32.15-120.25-57.3c965.8,254.4,1257.7-245.85,1257.7-245.85c-94.3-4.35-82.45-128.5-82.45-128.5
				c108.32,9.226,192.222-102.01,252.673-231.793c102.648-220.378-46.181-476.16-288.612-494.328
				c-3.894-0.292-5.911-0.379-5.911-0.379c-79.3,210-372.15,318.4-372.15,318.4c-67.85,206.9-242.35,215.6-242.35,215.6
				c-290.9,30.35-211.05-352.25-211.05-352.25c-221.8,18.9-400.15-27.45-400.15-27.45c-32.15,285-224.15,251.4-224.15,251.4
				l-60.5-186.2c-24.7-76.05,12.15-158.65,85.45-190.6C1071.6,2106.7,1348.4,2030,1857.85,2030s786.25,76.7,925.6,137.45
				C2856.75,2199.4,2893.65,2282,2868.9,2358.05z"/>
		</g>
		<g>
			<path style="fill:#000072;" d="M1857.856,3390.325c-171.348,0-342.656-23.823-509.243-71.479
				c-3.398-0.972-6.807-1.958-10.215-2.954c-139.355-40.742-249.36-147.568-294.263-285.762l-216.357-665.884
				c-28.076-86.416,13.408-178.896,96.499-215.127c145.547-63.467,425.664-139.121,933.579-139.121
				c507.92,0,788.037,75.654,933.584,139.121c83.086,36.23,124.57,128.711,96.494,215.127l-216.353,665.884
				c-44.902,138.188-154.917,245.02-294.282,285.767c-3.423,1.001-6.831,1.987-10.24,2.964
				C2200.507,3366.497,2029.164,3390.325,1857.856,3390.325z M1857.856,2049.998c-501.021,0-775.532,73.843-917.593,135.791
				c-64.121,27.954-96.123,99.36-74.438,166.094l216.357,665.884c40.806,125.61,140.786,222.705,267.446,259.736
				c3.34,0.977,6.66,1.934,9.985,2.886c325.932,93.242,670.488,93.247,996.441,0.015c3.33-0.957,6.679-1.924,10.024-2.9
				c126.66-37.031,226.646-134.131,267.456-259.736l216.353-665.884c21.684-66.733-10.318-138.14-74.434-166.094
				C2633.393,2123.841,2358.881,2049.998,1857.856,2049.998z"/>
		</g>
		<g>
			<g>
				<g>
					<path style="fill:#FFFFFF;" d="M3019.35,2614.1c-32.1,55-69.9,100.55-110.7,138.15c-132.5,122.3-296.85,161.3-401.95,173.4
						c-57.85,6.65-110.1-34.8-116.7-92.7l-0.3-2.85c-6.1-53.45,29.25-102.35,81.65-114.6c101.4-23.7,216.85-79.9,298.95-155.3
						c58-53.25,99.35-116,107.55-183.75c23.6-195-136.05-240.55-136.05-240.55c5.35-84.1-13.95-136.6-13.95-136.6
						c212.15,9.95,300.65,131.55,336.65,247.05C3102.85,2369.4,3084.35,2502.75,3019.35,2614.1z"/>
				</g>
				<g>
					<path style="fill:#000072;" d="M2494.443,2928.855c-24.248,0-47.607-8.105-66.865-23.394
						c-22.568-17.915-36.792-43.569-40.063-72.227l-0.298-2.876c-6.196-54.272,29.726-104.707,83.564-117.295
						c107.046-25.02,221.167-84.302,297.832-154.707c62.339-57.231,99.253-120.239,106.758-182.212
						c23.056-190.532-132.681-237.388-134.258-237.842l-1.933-0.552l0.127-2.007c5.249-82.529-13.608-135.063-13.804-135.586
						l-1.294-3.53l3.76,0.176c219.229,10.283,305.313,140.977,338.921,248.804c37.705,120.986,21.167,255.757-45.381,369.751
						c-30.406,52.104-67.808,98.779-111.162,138.73c-130.542,120.488-291.401,161.152-403.359,174.048
						C2502.788,2928.616,2498.603,2928.855,2494.443,2928.855z M2744.413,2134.114c18.223,6.133,158.086,59.473,135.918,242.637
						c-7.646,63.169-45.112,127.241-108.34,185.288c-77.256,70.957-192.237,130.688-300.069,155.898
						c-51.372,12.007-85.649,60.107-79.736,111.88l0.298,2.876c3.115,27.305,16.685,51.768,38.203,68.853
						c21.509,17.08,48.379,24.79,75.728,21.621c111.216-12.808,270.991-53.179,400.542-172.754
						c42.988-39.614,80.078-85.903,110.234-137.573l0,0c65.84-112.788,82.212-246.094,44.922-365.747
						c-32.944-105.703-117.09-233.701-330.752-245.112C2735.444,2015.086,2748.598,2063.709,2744.413,2134.114z"/>
				</g>
			</g>
			<g>
				<path style="fill:#EA9A1B;" d="M2765.808,2564.161c-81.791,73.382-194.863,128.06-294.458,151.339
					c-52.4,12.25-87.75,61.15-81.65,114.6l0.3,2.85c6.6,57.9,58.85,99.35,116.7,92.7c105.099-12.1,269.449-51.1,401.949-173.4
					c1.357-1.251,2.683-2.584,4.034-3.854C2897.084,2641.464,2832.712,2589.17,2765.808,2564.161z"/>
			</g>
			<g style="opacity:0.3;">
				<path style="fill:#000072;" d="M3064.5,2246.35c-20.693-66.391-58.799-134.755-127.699-182.813
					c32.736,39.185,54.022,83.932,67.699,127.813c38.35,123.05,19.85,256.4-45.15,367.75c-32.1,55-69.9,100.55-110.7,138.15
					c-132.5,122.3-296.85,161.3-401.95,173.4c-16.707,1.921-32.899-0.279-47.708-5.619c18.508,40.271,61.275,65.957,107.708,60.619
					c105.1-12.1,269.45-51.1,401.95-173.4c40.8-37.6,78.6-83.15,110.7-138.15C3084.35,2502.75,3102.85,2369.4,3064.5,2246.35z"/>
			</g>
			<g>
				<path style="fill:#000072;" d="M2494.408,2946.351c-28.208,0-55.391-9.443-77.788-27.246
					c-26.196-20.825-42.705-50.61-46.49-83.872l-0.327-2.861c-7.173-63.145,34.517-121.758,96.977-136.353
					c88.306-20.63,180.571-64.272,253.135-119.731c57.119-43.657,127.441-114.18,138.086-202.256
					c21.152-174.966-115.918-217.212-121.763-218.926c-8.979-2.632-15.005-11.152-14.409-20.488
					c4.99-78.252-12.588-127.964-12.764-128.457c-2.271-6.284-1.265-13.315,2.705-18.696c3.97-5.381,10.347-8.467,17.021-8.135
					c229.375,10.767,319.541,147.905,354.79,261.06c39.16,125.688,22.051,265.571-46.948,383.774
					c-141.943,243.198-391.518,305.723-527.656,321.348C2504.106,2946.072,2499.242,2946.351,2494.408,2946.351z M2762.465,2122.42
					c42.158,18.267,156.069,84.15,135.244,256.411c-12.314,101.909-90.273,180.908-153.501,229.233
					c-76.904,58.779-174.707,105.034-268.325,126.909c-42.7,9.976-71.216,49.902-66.333,92.876l0.327,2.856
					c2.573,22.646,13.809,42.915,31.631,57.085c17.866,14.204,40.21,20.586,62.91,17.983
					c128.706-14.775,364.512-73.623,497.671-301.777c63.35-108.525,79.131-236.719,43.301-351.714
					c-43.164-138.56-141.001-216.172-291.03-231.011C2759.076,2043.753,2763.935,2078.465,2762.465,2122.42z"/>
			</g>
		</g>
		<g>
			<g>
				<g>
					<path style="fill:#FFFFFF;" d="M969.588,1961.653c-74.967-1.884-145.574,35.367-187.573,97.493
						c-50.982,75.414-100.466,202.012-47.015,377.283c0,0,25.179,109.286,150.536,102.857
						c59.545-3.053,95.882-36.566,117.625-70.913c19.103-30.178,28.936-65.242,30.193-100.936
						c1.335-37.894,9.742-112.931,52.633-167.841c73.456-94.041,9.229-232.045-109.966-237.709
						C973.898,1961.785,971.754,1961.707,969.588,1961.653z"/>
				</g>
				<g>
					<path style="fill:#000072;" d="M875.131,2542.054c-116.987,0.015-142.319-103.984-142.568-105.063
						c-53.696-176.05-3.877-303.423,47.383-379.248c43.022-63.643,113.916-100.464,189.707-98.589
						c2.183,0.054,4.351,0.132,6.489,0.239c57.222,2.715,105.684,35.513,129.634,87.72c23.745,51.763,17.085,109.341-17.822,154.024
						c-42.139,53.945-50.728,127.402-52.1,166.387c-1.318,37.334-11.895,72.671-30.581,102.188
						c-28.623,45.225-68.867,69.473-119.609,72.07C882.079,2541.966,878.559,2542.054,875.131,2542.054z M964.057,1964.085
						c-71.987,0-138.945,35.776-179.971,96.46c-50.645,74.922-99.858,200.82-46.694,375.156
						c1.055,4.541,26.343,107.212,148.018,101.089c49.028-2.515,87.93-25.981,115.635-69.756
						c18.218-28.77,28.525-63.237,29.81-99.688c1.396-39.59,10.151-114.229,53.164-169.287
						c33.726-43.184,40.161-98.833,17.212-148.862c-23.154-50.479-70.01-82.183-125.327-84.815
						c-2.104-0.098-4.233-0.176-6.377-0.229l0,0C967.7,1964.104,965.878,1964.085,964.057,1964.085z"/>
				</g>
			</g>
			<g style="opacity:0.3;">
				<path style="fill:#000072;" d="M1052.276,1987.188c17.262,45.107,12.977,98.538-21.291,142.408
					c-42.891,54.91-51.298,129.947-52.633,167.842c-1.257,35.693-11.09,70.758-30.193,100.936
					c-21.742,34.347-58.08,67.86-117.625,70.913c-40.198,2.061-70.052-7.8-92.121-22.117c10.155,27.36,46.098,97.297,147.121,92.117
					c59.545-3.054,95.882-36.567,117.625-70.913c19.103-30.178,28.936-65.242,30.193-100.936
					c1.334-37.895,9.742-112.931,52.633-167.842C1141.503,2128.521,1118.341,2032.375,1052.276,1987.188z"/>
			</g>
			<g>
				<path style="fill:#000072;" d="M795.448,2534.57c-2.972-6.279-4.714-11.662-6.459-17.565c-1.577-5.823-2.922-11.68-3.892-17.612
					c-1.9-11.863-2.571-23.949-2.08-36.041c0.397-12.069,2.357-24.235,5.654-35.977c3.186-11.75,8.335-23.161,15.353-33.196
					c1.576-2.254,4.68-2.804,6.935-1.228c1.191,0.833,1.907,2.094,2.084,3.43l0.042,0.33c1.499,11.695,2.347,22.371,3.912,33.016
					c1.659,10.61,3.119,20.932,5.121,31.245l5.944,30.728l2.955,15.325c0.807,5.017,1.983,10.472,2.377,14.89l0.203,2.277
					c0.986,11.046-7.168,20.8-18.214,21.786C806.782,2546.747,798.954,2541.934,795.448,2534.57z"/>
			</g>
			<g>
				<path style="fill:#000072;" d="M907.96,2539.392c-2.972-6.279-4.714-11.662-6.459-17.565c-1.577-5.823-2.922-11.681-3.89-17.612
					c-1.901-11.863-2.571-23.949-2.081-36.04c0.397-12.069,2.358-24.235,5.654-35.977c3.186-11.75,8.336-23.161,15.353-33.196
					c1.576-2.254,4.681-2.804,6.935-1.228c1.191,0.833,1.907,2.094,2.084,3.43l0.043,0.33c1.498,11.695,2.348,22.371,3.911,33.016
					c1.659,10.61,3.119,20.932,5.121,31.245l5.945,30.728l2.954,15.324c0.808,5.017,1.982,10.472,2.377,14.89l0.204,2.277
					c0.986,11.046-7.169,20.8-18.214,21.786C919.296,2551.568,911.466,2546.756,907.96,2539.392z"/>
			</g>
			<g>
				<path style="fill:#000072;" d="M875.253,2559.554c-103.794,0-149.561-75.811-159.575-117.925
					c-55.44-182.49-3.56-314.8,49.771-393.687c46.372-68.604,122.739-108.384,204.643-106.284h-0.005
					c2.319,0.059,4.624,0.142,6.899,0.254c62.91,2.988,118.364,40.503,144.697,97.905c26.523,57.822,19.072,122.153-19.937,172.09
					c-39.097,50.049-47.109,119.365-48.408,156.23c-1.426,40.435-12.935,78.794-33.281,110.933
					c-31.392,49.59-77.554,77.319-133.496,80.19C882.719,2559.456,878.945,2559.554,875.253,2559.554z M964.067,1981.585
					c-66.167,0-127.729,32.915-165.483,88.76c-48.511,71.763-95.605,192.52-44.453,360.249c0.137,0.444,0.254,0.894,0.357,1.343
					c0.898,3.711,23.535,92.993,130.024,87.373c43.027-2.202,77.256-22.939,101.748-61.636
					c16.558-26.147,25.933-57.598,27.109-90.942c1.465-41.714,10.801-120.488,56.855-179.443
					c29.624-37.93,35.273-86.826,15.103-130.791c-20.381-44.419-61.597-72.319-110.254-74.634c-1.982-0.093-3.975-0.166-5.981-0.215
					h-0.005C967.411,1981.604,965.737,1981.585,964.067,1981.585z"/>
			</g>
		</g>
		<g>
			<g>
				<g>
					<g>
						<path style="fill:#FFFFFF;" d="M1385.357,1042.5c0,0-195.705-161.697-406.612-263.249
							c-59.45-28.625-130.142,7.656-141.849,72.592c-23.106,128.163-37.016,352.183,53.461,634.708
							C890.357,1486.551,1015.37,1146.458,1385.357,1042.5z"/>
					</g>
					<g>
						<path style="fill:#000072;" d="M890.195,1494.236l-2.222-6.924c-88.936-277.725-78.203-499.102-53.54-635.913
							c5.732-31.797,25.596-58.491,54.487-73.237c28.799-14.692,61.934-15.112,90.908-1.162
							c208.77,100.523,405.161,261.953,407.119,263.569l3.682,3.042l-4.6,1.294c-190.4,53.501-314.37,170.923-384.844,260.01
							c-76.416,96.601-108.174,181.65-108.482,182.5L890.195,1494.236z M935.6,771.834c-15.161,0-30.327,3.599-44.404,10.786
							c-27.49,14.023-46.387,39.419-51.841,69.668c-24.365,135.151-35.063,353.223,51.265,626.841
							c9.018-21.86,41.904-95.434,106.533-177.168c70.366-88.999,193.75-206.079,382.905-260.557
							c-28.027-22.661-209.976-167.246-402.397-259.902C964.267,775.057,949.936,771.834,935.6,771.834z"/>
					</g>
				</g>
				<g>
					<path style="fill:#000072;" d="M890.361,1506.541c-0.147,0-0.293,0-0.444-0.005c-8.53-0.186-16.006-5.757-18.608-13.887
						c-90.034-281.157-79.111-505.591-54.097-644.355c6.714-37.227,29.951-68.467,63.755-85.718
						c33.706-17.197,72.505-17.69,106.455-1.343c210.659,101.431,408.696,264.214,410.674,265.845
						c5.737,4.741,8.369,12.275,6.826,19.556c-1.538,7.28-6.992,13.106-14.155,15.117
						c-185.361,52.085-306.27,166.343-375.059,253.018c-75.015,94.521-106.279,177.866-106.587,178.696
						C906.215,1501.331,898.715,1506.541,890.361,1506.541z M935.6,789.349c-12.441,0-24.893,2.959-36.45,8.857
						c-22.583,11.523-38.096,32.363-42.573,57.188c-22.695,125.898-33.34,324.873,37.539,574.458
						c17.729-34.907,46.646-84.79,89.307-138.745c67.92-85.899,184.17-197.388,359.78-256.524
						c-62.144-48.232-214.146-160.757-373.135-237.314C959.096,791.985,947.353,789.349,935.6,789.349z"/>
				</g>
			</g>
			<g>
				<path style="fill:#F97DE2;" d="M1234,1059.164c0,0-111.735-92.319-232.15-150.299c-33.942-16.343-74.303,4.371-80.987,41.445
					c-13.192,73.173-21.134,201.075,30.523,362.379C951.386,1312.69,1022.76,1118.518,1234,1059.164z"/>
				<path style="fill:#000072;" d="M951.225,1320.379l-2.222-6.929c-50.845-158.779-44.702-285.356-30.601-363.584
					c3.335-18.486,14.878-34.009,31.675-42.578c16.743-8.54,36.006-8.789,52.856-0.674
					c119.312,57.446,231.538,149.697,232.656,150.62l3.682,3.042l-4.595,1.294c-207.612,58.335-280.234,250.049-280.942,251.983
					L951.225,1320.379z M977.216,905.706c-8.486,0-16.982,2.012-24.863,6.035c-15.396,7.857-25.977,22.075-29.028,39.014
					c-13.809,76.587-19.917,199.893,28.369,354.609c14.692-34.077,92.124-193.071,277.002-247.28
					c-20.361-16.357-121.338-95.644-227.93-146.968C993.266,907.508,985.244,905.706,977.216,905.706z"/>
			</g>
			<g style="opacity:0.3;">
				<path style="fill:#000072;" d="M1001.85,908.865c-20.081-9.669-42.358-6.295-58.629,5.691
					c27.618,14.298,54.439,30.039,79.175,45.641c56.104,35.387,58.41,116.261,4.166,154.438
					c-43.671,30.736-76.697,66.371-100.809,98.597c6.141,31.46,14.495,64.677,25.633,99.457c0,0,71.375-194.172,282.614-253.525
					C1234,1059.164,1122.264,966.845,1001.85,908.865z"/>
			</g>
			<g>
				<path style="fill:#000072;" d="M951.396,1332.674c-0.156,0-0.308,0-0.459-0.005c-8.525-0.195-15.996-5.757-18.599-13.882
					c-51.943-162.207-45.615-291.841-31.157-372.026c4.311-23.911,19.233-43.984,40.942-55.059
					c21.66-11.05,46.587-11.362,68.403-0.854c121.211,58.359,231.572,149.063,236.211,152.895
					c5.737,4.741,8.369,12.276,6.826,19.556c-1.538,7.28-6.992,13.105-14.155,15.117
					c-198.398,55.747-268.574,239.35-269.263,241.201C967.236,1327.469,959.741,1332.674,951.396,1332.674z M977.221,923.221
					c-5.771,0-11.548,1.372-16.914,4.111c-10.483,5.347-17.686,15.015-19.761,26.528c-12.158,67.427-18.164,172.085,15.586,303.227
					c33.462-59.004,105.61-156.294,236.025-205.259c-40.557-30.713-118.223-86.06-198.984-124.946
					C988.095,924.441,982.661,923.221,977.221,923.221z"/>
			</g>
			<g>
				<g>
					<path style="fill:#FFFFFF;" d="M2279.4,1614.05c25.75,225.85-36.05,626.3-797.6,626.3c-572.6,0-675-197.65-673.2-342.35
						c1-83.55,36.75-149.45,36.75-149.45s-122.1-797.1,822.85-742.5c0,0,160.05-138.45,403.75-258.05
						c92.4-45.4,201.7,15.45,212.4,117.85c3.95,37.75,6.85,80.95,7.75,129.55c2.25,122.25-8.1,278.7-46.4,468.15
						C2245.7,1463.55,2269.3,1525.3,2279.4,1614.05z"/>
				</g>
				<g>
					<path style="fill:#000072;" d="M1481.801,2242.85c-295.723,0-497.632-52.617-600.122-156.387
						c-51.064-51.704-76.494-115.122-75.581-188.491c0.942-78.472,32.744-142.305,36.665-149.873
						c-2.519-18.193-41.255-324.907,152.857-538.237c140.483-154.39,366.504-223.848,671.724-206.367
						c12.422-10.566,170.889-143.579,403.506-257.739c44.668-21.943,95.283-20.693,138.882,3.408
						c43.799,24.214,71.904,66.65,77.104,116.426c4.321,41.309,6.934,84.971,7.764,129.766
						c2.671,145.098-12.906,302.549-46.304,467.988c2.597,7.061,24.135,67.344,33.589,150.425l0,0
						c13.071,114.639,3.979,278.936-113.55,410.63C2038.969,2169.354,1807.983,2242.85,1481.801,2242.85z M1577.656,1005.862
						c-258.677,0-452.935,69.566-578.311,207.334c-197.5,217.021-152.007,531.821-151.523,534.976l0.127,0.83l-0.4,0.737
						c-0.357,0.654-35.469,66.367-36.45,148.291c-0.894,71.987,24.048,134.204,74.141,184.917
						c101.514,102.788,302.227,154.902,596.563,154.902c324.697,0,554.424-72.935,682.803-216.782
						c116.299-130.313,125.268-293.11,112.309-406.733l0,0c-9.941-87.378-33.311-149.277-33.545-149.893l-0.259-0.679l0.142-0.708
						c33.423-165.342,49.019-322.671,46.348-467.612c-0.825-44.648-3.428-88.164-7.735-129.336
						c-5.029-48.125-32.202-89.155-74.556-112.568c-42.148-23.296-91.084-24.502-134.253-3.291
						c-240.63,118.091-401.621,256.309-403.218,257.69l-0.767,0.664l-1.016-0.059
						C1637.114,1006.756,1606.957,1005.862,1577.656,1005.862z"/>
				</g>
			</g>
			<g>
				<path style="fill:#EA9A1B;" d="M1204.833,1068.336c0,0,49.441,47.133-17.681,131.629
					c-31.933,40.198-55.686,86.455-68.988,136.041c-22.633,84.372-83.149,191.678-243.334,92.913
					C874.83,1428.919,948.772,1148.28,1204.833,1068.336z"/>
			</g>
			<g>
				<path style="fill:#EA9A1B;" d="M2245.7,1463.55c0,0,23.6,61.75,33.7,150.5c-184.007,35.345-279.682-66.104-328.435-163.729
					c-42.183-84.471-114.94-149.083-201.506-186.781c-37.203-16.201-74.25-40.638-102.159-77.491c-85.15-112.5,20.9-180,20.9-180
					S1828.25,867.6,2071.95,748c92.4-45.4,201.7,15.45,212.4,117.85C2298.2,998.55,2299.2,1198.8,2245.7,1463.55z"/>
			</g>
			<g style="opacity:0.3;">
				<path style="fill:#000072;" d="M2279.4,1614.05c25.75,225.85-36.05,626.3-797.6,626.3c-572.6,0-675-197.65-673.2-342.35h0.05
					c0,0,136.042,277.529,634.654,249.579c46.208-2.59,89.534-23.24,120.943-57.23c51.786-56.042,151.191-139.629,287.644-146.054
					c174.772-8.228,313.392-153.832,312.547-328.796c-0.885-183.092-72.028-397.107-333.688-559.699
					c17.5,10.1,328.45,184.75,461.35-60.4c2.25,122.25-8.1,278.7-46.4,468.15C2245.7,1463.55,2269.3,1525.3,2279.4,1614.05z"/>
			</g>
			<g style="opacity:0.7;">
				<path style="fill:#FFFFFF;" d="M2071.95,748c-243.7,119.6-403.75,258.05-403.75,258.05c-944.95-54.6-822.85,742.5-822.85,742.5
					s-35.75,65.9-36.75,149.45c-0.413,33.225,4.696,69.242,19.701,105.017c-3.568-18.824-4.922-37.318-4.701-55.017
					c1-83.55,36.75-149.45,36.75-149.45s-70.055-377.614,202.402-590.753c13.44,8.791,45.378,2.783,77.201-15.59
					c32.47-18.746,53.803-44.013,51.972-60.009c103.885-44.491,238.802-70.48,413.813-66.107
					c34.513,0.862,68.393-9.683,95.989-30.428c67.74-50.92,211.152-152.235,385.223-237.663
					c75.365-37.03,161.952-3.361,197.131,65.87C2272.177,762.681,2163.747,702.896,2071.95,748z"/>
			</g>
			<g style="opacity:0.2;">
				<path style="fill:#000072;" d="M1251.429,1803.214c0,0-6.733,60.155-55.179,62.679c-51.429,2.678-80.901-46.607-80.901-46.607
					s-44.189,125.357,52.24,155.089c96.429,29.732,136.774-20.089,136.774-20.089s41.4,39.205,135.637,29.553
					c92.411-9.464,130.307-103.482,73.591-169.375c0,0-119.394,123.75-173.234-19.286L1251.429,1803.214z"/>
			</g>
			<g>
				<path style="fill:#F97DE2;" d="M2164.8,1295.35c0,0-2.5-3.2-7.4-8.95l-0.05-0.05c-30.1-35.35-149.65-165.6-327.35-231
					c0,0,0.05,0,0.15-0.05c4.6-3.5,133-99.05,269.65-171.15c14.15-7.45,30-7.7,43.5-2.2c2.75,1.1,5.45,2.5,8,4.1
					c9.8,6.05,17.6,15.55,21.45,27.55C2191.85,973.45,2208,1090.3,2164.8,1295.35z"/>
				<path style="fill:#000072;" d="M2166.137,1301.121l-3.306-4.233c-0.019-0.024-2.5-3.188-7.334-8.867
					c-32.1-37.69-150.347-165.542-326.362-230.327l-13.169-4.844h13.286c9.839-7.354,134.497-99.746,269.38-170.913
					c14.224-7.481,30.85-8.32,45.61-2.3c2.798,1.118,5.62,2.563,8.384,4.292c10.635,6.567,18.633,16.836,22.505,28.911
					c20.01,62.695,34.883,180.039-7.885,383.027L2166.137,1301.121z M1835.239,1054.632
					c174.746,65.688,292.031,192.534,324.014,230.098c1.67,1.953,3.062,3.618,4.175,4.966
					c41.216-198.75,26.597-313.745,6.938-375.332c-3.506-10.938-10.742-20.239-20.381-26.187c-2.52-1.582-5.078-2.891-7.612-3.906
					c-13.413-5.459-28.496-4.702-41.411,2.09C1974.448,953.113,1856.972,1038.572,1835.239,1054.632z"/>
			</g>
			<g style="opacity:0.3;">
				<path style="fill:#000072;" d="M2157.35,1286.35c-30.1-35.35-149.65-165.6-327.35-231c0,0,0.05,0,0.15-0.05
					c4.6-3.5,133-99.05,269.65-171.15c14.15-7.45,30-7.7,43.5-2.2c2.75,1.1,5.45,2.5,8,4.1c-13.76,11.033-29.66,24.78-47.114,41.586
					c-62.505,60.184-70.436,157.497-18.684,227.145C2112.766,1191.473,2139.996,1236.425,2157.35,1286.35z"/>
			</g>
			<g>
				<path style="fill:#000072;" d="M2164.823,1315.359c-6.074,0-11.924-2.773-15.761-7.69
					c-1.24-1.587-127.285-160.449-325.967-233.54c-6.88-2.529-11.826-8.623-12.886-15.879c-1.06-7.256,1.938-14.512,7.807-18.901
					c1.318-0.986,133.482-99.541,272.471-172.891c18.828-9.932,40.913-11.021,60.596-2.969
					c19.488,7.969,34.326,24.014,40.713,44.014c20.65,64.688,36.128,185.195-7.402,391.977c-1.602,7.612-7.476,13.604-15.054,15.361
					C2167.836,1315.188,2166.323,1315.359,2164.823,1315.359z M1871.215,1050.247c138.208,59.199,236.753,152.524,281.894,201.157
					c31.899-173.765,18.442-275.791,0.581-331.733c-2.818-8.828-9.121-15.63-17.744-19.16c-8.701-3.545-18.457-3.071-26.792,1.323
					C2011.518,953.362,1917.26,1017.615,1871.215,1050.247z"/>
			</g>
			<g>
				<path style="fill:#000072;" d="M1005.669,1609.195c16.676,9.003,33.195,17.068,49.171,22.497
					c16.079,5.444,31.726,8.214,47.271,7.991c15.544-0.164,31.239-3.483,47.271-9.448c16.14-5.747,32.352-14.051,49.965-22.75
					l0.112-0.056c4.106-2.028,9.08-0.344,11.107,3.763c1.263,2.557,1.06,5.497-0.245,7.806
					c-10.352,18.006-25.278,33.373-43.632,45.23c-18.258,11.786-40.823,19.372-64.025,19.535
					c-23.188,0.436-46.141-6.624-64.564-18.633c-9.268-5.969-17.574-13.04-24.725-20.997c-3.556-4.004-6.895-8.143-9.805-12.623
					c-2.965-4.504-5.558-8.903-7.787-14.223c-1.42-3.385,0.176-7.28,3.561-8.699c1.917-0.803,3.996-0.641,5.698,0.266
					L1005.669,1609.195z"/>
			</g>
			<g>
				<path style="fill:#000072;" d="M1459.237,1605.881c18.425,10.98,37.085,20.67,55.413,27.296
					c18.434,6.634,36.714,10.075,54.9,9.807c18.188-0.187,36.494-4.249,54.863-11.425c18.494-6.948,36.83-16.867,56.35-27.388
					l0.083-0.045c3.997-2.154,8.982-0.661,11.135,3.335c1.443,2.676,1.241,5.806-0.244,8.222
					c-12.26,19.828-29.31,36.81-50.016,49.868c-20.598,12.997-45.773,21.327-71.617,21.513
					c-25.831,0.481-51.418-7.249-72.195-20.449c-10.447-6.561-19.871-14.346-28.07-23.104c-4.08-4.406-7.926-8.968-11.32-13.897
					c-3.448-4.953-6.511-9.817-9.169-15.64c-1.511-3.312-0.051-7.223,3.262-8.734c2.031-0.927,4.287-0.736,6.077,0.313
					L1459.237,1605.881z"/>
			</g>
			<g>
				<path style="fill:#000072;" d="M1233.44,1742.147c23.87-7.613,75.547-18.595,140.867-0.257
					c11.626,3.264,18.768,14.936,16.127,26.719c-4.685,20.901-20.093,51.275-69.285,61.526
					c-24.623,5.131-50.632,1.764-71.801-11.818c-15.969-10.246-30.833-26.945-31.594-53.728
					C1217.465,1754.424,1223.751,1745.238,1233.44,1742.147z"/>
			</g>
			
				<ellipse transform="matrix(0.9993 -0.0387 0.0387 0.9993 -67.1908 50.6418)" style="opacity:0.3;fill:#FFFFFF;" cx="1274.835" cy="1761.33" rx="27.403" ry="11.99"/>
			<g>
				<path style="fill:#000072;" d="M1319.543,1821.276l0.154,3.658c0.077,1.441,0.198,2.933,0.358,4.42
					c0.32,2.976,0.713,5.978,1.248,8.932c1.11,5.906,2.639,11.658,4.633,17.068c4.109,10.802,10.015,20.139,17.952,27.335
					c15.485,14.7,39.79,21.384,65.872,22.195c26.207,1.308,51.55-3.237,68.276-16.94c8.477-6.837,15.002-16.533,19.415-28.298
					c2.175-5.873,3.794-12.201,5.015-18.768c1.174-6.477,1.874-13.623,2.167-20.018l0.04-0.856c0.187-4.072,3.638-7.221,7.71-7.035
					c3.024,0.139,5.541,2.086,6.558,4.743c3.021,7.924,4.746,15.399,5.724,23.488c0.974,8.001,1.062,16.242,0.054,24.599
					c-1.94,16.598-8.854,34.151-21.395,47.689c-6.107,6.841-13.398,12.504-21.093,17.143c-7.777,4.468-15.906,7.88-24.132,10.37
					c-16.481,4.915-32.853,6.532-48.918,6.826c-16.077,0.068-32.712-1.637-49.357-6.431c-4.172-1.007-8.258-2.854-12.369-4.312
					c-4.039-1.896-8.145-3.544-12.046-5.873c-7.908-4.282-15.457-9.678-22.113-16.053c-13.37-12.74-23.159-29.001-28.351-45.805
					c-2.706-8.39-4.408-16.918-5.28-25.449c-0.432-4.268-0.734-8.53-0.688-12.837c-0.002-2.154,0.05-4.307,0.166-6.509
					c0.125-2.344,0.237-4.083,0.602-7.262c1.255-10.93,11.134-18.773,22.064-17.518c9.882,1.135,17.239,9.317,17.633,18.953
					L1319.543,1821.276z"/>
			</g>
			<g>
				<path style="fill:#000072;" d="M1319.418,1816.297c0.483,2.791,0.676,4.325,0.939,6.421c0.236,1.95,0.41,3.872,0.573,5.795
					c0.304,3.832,0.391,7.659,0.338,11.493c-0.06,7.667-0.808,15.401-2.324,23.15c-2.861,15.461-9.144,31.283-19.679,44.917
					c-10.41,13.71-25.228,24.096-40.496,30.183c-15.417,6.175-31.091,8.224-46.041,8.707c-14.817,0.315-31.042-1.304-46.453-7.029
					c-15.476-5.508-29.884-15.826-39.749-28.796c-10.013-12.926-15.732-27.76-18.549-42.248c-1.372-7.287-2.086-14.547-2.073-21.755
					c-0.015-7.278,0.577-14.154,2.13-21.617c0.836-4.015,4.768-6.592,8.782-5.756c2.87,0.597,5.005,2.776,5.685,5.436l0.178,0.711
					c6.089,24.021,16.221,47.468,31.193,61.207c7.405,6.993,15.897,11.515,25.399,14.351c9.595,2.843,20.149,3.208,31.588,2.393
					c11.304-0.73,22.128-2.733,31.089-6.773c9.154-3.731,16.516-9.221,22.202-16.45c5.845-7.104,9.897-16.296,12.498-26.57
					c1.235-5.14,2.18-10.526,2.693-16.028c0.259-2.75,0.386-5.517,0.521-8.274l0.061-4.078l-0.056-3.413l-0.037-2.259
					c-0.177-11.011,8.605-20.082,19.617-20.26C1309.409,1799.595,1317.782,1806.774,1319.418,1816.297z"/>
			</g>
			<g>
				<path style="fill:#000072;" d="M1681.357,1021.147c-3.232,3.322-6.96,6.077-10.859,8.633c-3.87,2.592-8.031,4.849-12.251,7.037
					c-4.307,2.09-8.689,4.094-13.358,5.767c-4.64,1.708-9.462,3.208-14.786,4.13c-3.56,0.616-6.945-1.769-7.561-5.329
					c-0.183-1.063-0.089-2.138,0.212-3.1c1.641-5.149,3.783-9.721,6.107-14.084c2.295-4.398,4.878-8.466,7.535-12.447
					c2.743-3.883,5.547-7.698,8.641-11.177c3.065-3.515,6.301-6.831,10.034-9.581c8.922-6.573,21.486-4.669,28.059,4.254
					C1689.041,1003.272,1688.092,1014.238,1681.357,1021.147z"/>
			</g>
			<g>
				<path style="fill:#000072;" d="M1842.579,1070.906c-8.707,7.406-18.357,13.647-28.275,19.556
					c-4.993,2.913-9.976,5.838-15.345,8.285c-5.361,2.458-10.853,4.753-16.986,6.257c-4.973,1.219-9.993-1.823-11.212-6.795
					c-0.533-2.178-0.245-4.375,0.66-6.247c2.751-5.684,6.143-10.576,9.666-15.306c3.513-4.741,7.415-9.003,11.306-13.277
					c7.849-8.466,15.968-16.599,25.028-23.569c8.757-6.737,21.318-5.099,28.055,3.659
					C1852.002,1051.951,1850.629,1064.036,1842.579,1070.906z"/>
			</g>
			<g>
				<path style="fill:#000072;" d="M2226.45,1468.953c-20.669-74.009-77.783-161.758-78.36-162.637l33.462-21.919
					c2.486,3.794,61.069,93.745,83.423,173.794L2226.45,1468.953z"/>
			</g>
			<g>
				<path style="fill:#000072;" d="M1481.786,2260.359c-349.297,0-569.756-72.827-655.244-216.46
					c-76.592-128.691-16.88-267.974-1.851-298.808c-6.079-48.198-33.11-336.983,158.008-547.017
					c143.14-157.3,371.504-228.701,678.711-212.412c32.192-26.694,185.249-149.404,401.709-255.64
					c49.888-24.487,106.411-23.071,155.098,3.843c48.135,26.626,80.283,75.186,86.001,129.897
					c12.837,122.827,16.616,326.03-37.793,598.242c15.225,43.11,100.444,311.157-48.867,528.047
					C2094.076,2169.412,1846.528,2260.359,1481.786,2260.359z M862.949,1758.084c-0.762,1.411-75.259,142.754-1.851,265.659
					c76.826,128.628,291.455,196.616,620.688,196.616c350.791,0,587.256-85.117,702.822-252.988
					c147.608-214.409,43.491-493.862,42.422-496.66c-1.353-3.54-1.675-7.388-0.923-11.099
					c54.565-270.034,50.962-470.81,38.325-591.689c-4.424-42.344-28.325-78.447-65.581-99.053
					c-37.07-20.513-80.127-21.577-118.105-2.94c-238.315,116.958-397.866,253.896-399.448,255.269
					c-3.936,3.403-9.136,5.171-14.238,4.839c-298.687-17.295-518.931,49.673-654.775,198.96
					c-191.977,210.972-147.632,517.476-147.158,520.547C865.786,1749.851,865.019,1754.251,862.949,1758.084L862.949,1758.084z"/>
			</g>
		</g>
		<g>
			<g>
				<path style="fill:#FFFFFF;" d="M2372.15,1950c-0.05,0.15-0.15,0.35-0.2,0.55c-114.95,310.5-321.3,403.45-403.45,428.9
					c-21.7,6.7-39,23.15-46.75,44.5c-53.2,146.2-140,178.45-215.75,172.55c-108.95-8.5-191.8-102.75-189.9-211.95
					c2.65-152.2,131.25-262.2,221.4-320.75c54.7-35.5,121.2-48,185.05-34.9c110.85,22.7,209.05,76.55,212.7,78.5l-17.55-11.45
					c64.1-47.9,105.15-111.75,124.9-147.75c15-27.35,44.7-44.3,75.75-40.95c15,1.6,26.1,7.5,34.2,14.45
					C2367.3,1934.15,2372.15,1950,2372.15,1950z"/>
			</g>
			<g style="opacity:0.3;">
				<path style="fill:#000072;" d="M2372.15,1950c-0.05,0.15-0.15,0.35-0.2,0.55c-114.95,310.5-321.3,403.45-403.45,428.9
					c-21.7,6.7-39,23.15-46.75,44.5c-53.2,146.2-140,178.45-215.75,172.55c-108.95-8.5-191.8-102.75-189.9-211.95
					c0,0,68.55,152.3,186.4,121.9c73.054-18.845,127.586-89.411,158.488-140.334c19.475-32.094,49.653-56.415,85.245-68.357
					c83.377-27.976,247.129-113.975,406.318-376.059c0.03-0.049,0.059-0.098,0.089-0.147c4.621-7.675,16.08-6.71,19.294,1.653
					C2374.75,1930.537,2376.063,1939.826,2372.15,1950z"/>
			</g>
			<g>
				<path style="fill:#000072;" d="M2133.628,2110.616c-22.034-4.999-43.176-11.157-64.05-17.502
					c-20.874-6.344-41.411-13.053-61.886-19.71c-20.437-6.741-40.942-13.183-61.722-18.168c-5.171-1.375-10.371-2.55-15.583-3.638
					c-5.135-1.042-10.564-2.462-15.458-3.2c-9.926-1.981-20.027-2.817-30.098-3.491c-40.388-1.905-81.107,7.201-116.731,25.95
					c-4.359,2.514-8.867,4.764-13.069,7.54l-6.427,4.042l-6.65,4.509c-8.947,5.902-17.549,12.26-26.243,18.492
					c-17.025,12.903-33.778,26.161-49.403,40.539c-31.614,28.374-59.268,60.541-81.722,95.36
					c-22.146,34.997-37.173,73.713-42.904,113.68c-1.127,4.947-0.969,10.036-1.439,15.054l-1.023,15.09l0.488,14.711
					c-0.032,2.461,0.289,4.892,0.646,7.319l0.944,7.292c2.833,19.384,8.605,38.325,17.125,56.009
					c17.549,35.106,45.986,64.667,80.537,82.907c17.319,9.001,36.018,15.177,55.277,18.353c4.851,0.585,9.67,1.372,14.543,1.864
					c4.904,0.121,9.854,0.705,14.723,0.512c4.867-0.169,9.788-0.001,14.573-0.659l7.228-0.686c2.401-0.265,4.736-0.824,7.111-1.21
					c18.925-3.351,36.943-10.255,53.224-20.515c16.312-10.222,30.824-23.734,43.584-39.153
					c13.009-15.241,23.304-33.232,32.965-51.485c4.381-9.458,9.229-18.64,12.876-28.556l5.884-14.629
					c2.291-6.201,5.544-13.073,9.398-18.97c7.734-12.055,18.243-22.279,30.465-29.667c6.107-3.699,12.634-6.696,19.406-8.916
					l15.465-5.038c4.983-1.607,9.871-3.619,14.814-5.403c4.962-1.746,9.821-3.807,14.667-5.911
					c4.839-2.116,9.762-4.032,14.539-6.304l14.293-6.924c37.977-18.802,73.778-42.372,106.556-69.67
					c32.827-27.283,62.604-58.216,89.885-91.313c12.761-17.253,26.486-33.819,37.802-52.166
					c5.819-9.045,12.151-17.767,17.749-26.972c5.492-9.273,11.057-18.514,16.764-27.698l8.588-13.781l7.892-14.207
					c5.303-9.465,10.781-18.871,16.392-28.26c10.668-19.041,20.734-38.495,32.719-57.439l0.14-0.22
					c1.208-1.911,3.738-2.48,5.649-1.271c1.483,0.938,2.156,2.68,1.818,4.302c-2.299,10.944-5.002,21.808-7.936,32.623
					c-3.083,10.754-5.614,21.791-9.624,32.239c-3.916,10.488-7.966,20.959-12.192,31.371l-6.399,15.608
					c-2.405,5.075-4.915,10.108-7.478,15.114c-5.07,10.044-10.281,20.031-15.566,29.987c-2.455,5.086-5.83,9.645-8.717,14.486
					l-9.05,14.303c-11.611,19.379-25.765,37.093-38.989,55.438c-28.265,35.36-59.369,68.631-93.961,98.227
					c-34.548,29.611-72.518,55.45-113.258,76.368l-15.356,7.708c-5.14,2.53-10.461,4.713-15.688,7.082
					c-5.234,2.357-10.491,4.668-15.9,6.673c-5.389,2.042-10.681,4.29-16.158,6.154l-15.895,5.437
					c-3.68,1.271-7.205,2.958-10.491,5.02c-6.577,4.118-12.179,9.754-16.244,16.316c-2.092,3.39-3.555,6.541-5.096,10.672
					l-6.315,16.102c-3.92,10.817-9.226,21.245-14.067,31.803c-10.728,20.72-22.344,41.351-37.803,59.899
					c-15.148,18.622-33.074,35.731-54.042,49.1c-20.89,13.417-44.698,22.769-69.133,27.261c-3.058,0.532-6.106,1.226-9.175,1.602
					l-9.221,0.974c-6.156,0.823-12.285,0.751-18.428,0.971c-6.151,0.241-12.205-0.34-18.313-0.505
					c-6.091-0.537-12.179-1.424-18.268-2.158c-24.247-3.772-47.924-11.404-69.8-22.601
					c-43.762-22.632-78.938-59.962-100.704-103.725c-10.608-22.065-17.782-45.743-21.241-69.956l-1.145-9.107
					c-0.41-3.034-0.774-6.07-0.773-9.133l-0.53-18.337l1.195-17.896c0.555-5.945,0.511-11.967,1.777-17.818
					c6.837-47.348,24.808-92.46,49.88-131.826c6.589-9.605,12.676-19.64,19.98-28.64l10.645-13.766l11.359-13.077
					c7.39-8.911,15.73-16.804,23.611-25.183c4.063-4.052,8.293-7.906,12.435-11.864c4.161-3.934,8.287-7.913,12.655-11.583
					c17.021-15.273,35.038-29.199,53.308-42.688c9.294-6.508,18.511-13.134,28.038-19.265l7.092-4.682l7.618-4.674
					c5.057-3.22,10.437-5.884,15.676-8.782c42.681-21.83,91.106-31.992,138.799-29.157c11.897,0.904,23.801,2.091,35.487,4.539
					c5.992,1.02,11.226,2.476,16.873,3.696c5.564,1.236,11.096,2.559,16.563,4.077c21.998,5.689,43.634,12.364,64.796,20.194
					c21.13,7.91,41.652,17.333,61.206,28.563c19.521,11.294,38.318,23.892,55.105,39.797c1.475,1.397,1.537,3.726,0.14,5.201
					c-0.925,0.976-2.257,1.333-3.479,1.059L2133.628,2110.616z"/>
			</g>
			<g>
				<path style="fill:#000072;" d="M1803.96,2585.646c-3.469-2.548-5.776-4.525-8.364-6.897c-2.507-2.287-4.814-4.72-7.112-7.141
					c-2.267-2.467-4.308-5.081-6.466-7.623c-2.05-2.621-3.984-5.329-5.892-8.05c-7.483-10.999-13.444-23.093-17.734-35.772
					c-4.404-12.609-6.864-26.01-7.135-39.313c-0.692-13.241,1.84-26.593,6.161-38.7c0.674-1.887,2.749-2.87,4.636-2.197
					c1.073,0.383,1.854,1.221,2.205,2.22l0.111,0.322c4.091,11.899,7.231,22.803,12.202,33.031
					c4.729,10.2,9.756,19.851,15.719,28.963c5.833,9.137,12.065,17.905,18.616,26.455c3.358,4.208,6.549,8.545,9.991,12.65
					c1.63,2.137,3.334,4.186,4.994,6.239c1.55,1.992,3.511,4.261,4.48,5.773l2.104,3.285c5.925,9.248,3.232,21.547-6.014,27.473
					C1819.348,2590.919,1810.396,2590.347,1803.96,2585.646z"/>
			</g>
			<g>
				<path style="fill:#000072;" d="M1633.403,2594.479c-3.059-3.029-5.051-5.323-7.264-8.048c-2.145-2.629-4.071-5.374-5.99-8.105
					c-1.881-2.773-3.517-5.657-5.28-8.488c-1.643-2.893-3.16-5.855-4.65-8.826c-5.791-11.976-9.917-24.813-12.305-37.983
					c-2.51-13.118-2.98-26.734-1.301-39.935c1.255-13.2,5.715-26.037,11.764-37.38c0.942-1.768,3.138-2.437,4.906-1.494
					c1.007,0.536,1.656,1.48,1.857,2.519l0.062,0.335c2.305,12.37,3.815,23.616,7.234,34.462
					c3.185,10.782,6.743,21.065,11.309,30.953c4.431,9.893,9.313,19.479,14.54,28.896c2.705,4.655,5.227,9.412,8.031,13.977
					c1.299,2.353,2.684,4.629,4.027,6.903c1.241,2.198,2.849,4.729,3.585,6.366l1.602,3.558c4.507,10.015,0.042,21.788-9.973,26.295
					C1647.853,2601.949,1639.081,2600.072,1633.403,2594.479z"/>
			</g>
		</g>
	</g>
</g>
</svg>
